<svg data-v-0dd9719b="" version="1.0" xmlns="http://www.w3.org/2000/svg" xmlns:xlink="http://www.w3.org/1999/xlink"
    width="100%" height="100%" viewBox="0 0 250.000000 250.000000" preserveAspectRatio="xMidYMid meet"
    color-interpolation-filters="sRGB" >
    <rect data-v-0dd9719b="" x="0" y="0" width="100%" height="100%" fill="#fff" fill-opacity="0" class="background">
    </rect>
    <g data-v-0dd9719b="" fill="#FDF4E8" class="iconbordersvg" transform="translate(83.19999694824219,70.91650390625)">
        <g transform="translate(0.000091552734375,0)">
            <rect fill="#FDF4E8" width="64.80000305175781" height="3" fill-opacity="1" x="0" y="21.248497009277344">
            </rect>
            <g class="iconsvg-imagesvg" transform="translate(67.80000305175781,0)">
                <g>
                    <svg x="0" y="0" width="38.00000000000037" height="45.49699480376472" filtersec="colorsb3863196213"
                        class="image-svg-svg primary" style="overflow: visible;"><svg xmlns="http://www.w3.org/2000/svg"
                            viewBox="101.30999755859375 10.034000396728516 1275.89404296875 1527.6219482421875">
                            <path fill-rule="evenodd" clip-rule="evenodd" fill="#FDF4E8"
                                d="M1377.204 1537.656h-303.412V549.933H793.897v987.723H490.336v-800.91H209.24v692.984h80.171V774.287h107.931v763.369H101.31V628.814h496.957v800.916h87.702V332.37H397.342v258.903H289.411V224.439h504.486v217.566h387.826v987.725h87.554V117.965H980.653v286.496H872.722V10.034h504.482z">
                            </path>
                        </svg></svg>
                </g>
            </g>
            <rect fill="#FDF4E8" width="64.80000305175781" height="3" fill-opacity="1" x="108.7998161315918"
                y="21.248497009277344"></rect>
        </g>
        <g transform="translate(0,48.49699401855469)">
            <g data-gra="path-name" fill-rule="" class="tp-name" transform="translate(0,0)">
                <g transform="scale(1)">
                    <g>
                        <path
                            d="M31.58 0L28.12 0 28.12-26.4 27.88-24.76 18.93 0 17.11 0 8.08-24.76 7.87-26.4 7.87 0 4.4 0 4.4-38.51 6.2-38.51 17.89-6.93 17.99-5.51 18.1-6.93 29.76-38.51 31.58-38.51 31.58 0ZM59.04 0L37.36 0 37.36-38.51 59.04-38.51 59.04-35.21 40.83-35.21 40.83-20.89 55.57-20.89 55.57-17.59 40.83-17.59 40.83-3.3 59.04-3.3 59.04 0ZM84.74 0L80.74 0 70.3-16.44 65.54-16.44 65.54 0 62.08 0 62.08-38.51 74.3-38.51Q76.26-38.51 77.98-37.77 79.7-37.03 80.98-35.74 82.27-34.46 83.01-32.72 83.75-30.99 83.75-29.03L83.75-29.03 83.75-25.92Q83.75-23.96 83.01-22.22 82.27-20.49 80.98-19.2 79.7-17.91 77.98-17.17 76.26-16.44 74.3-16.44L74.3-16.44 84.74 0ZM80.29-25.92L80.29-29.03Q80.29-30.32 79.8-31.43 79.32-32.55 78.49-33.39 77.65-34.24 76.54-34.72 75.43-35.21 74.14-35.21L74.14-35.21 65.54-35.21 65.54-19.74 74.14-19.74Q75.43-19.74 76.54-20.22 77.65-20.71 78.49-21.55 79.32-22.4 79.8-23.51 80.29-24.63 80.29-25.92L80.29-25.92ZM91.82 0L88.35 0 88.35-38.51 91.82-38.51 91.82 0ZM119.3-9.45L119.3-9.45Q119.3-7.49 118.56-5.77 117.82-4.06 116.53-2.77 115.24-1.48 113.51-0.74 111.78 0 109.82 0L109.82 0 97.62 0 97.62-38.51 109.82-38.51Q111.78-38.51 113.51-37.77 115.24-37.03 116.53-35.74 117.82-34.46 118.56-32.72 119.3-30.99 119.3-29.03L119.3-29.03 119.3-9.45ZM115.83-9.45L115.83-29.03Q115.83-30.32 115.35-31.43 114.87-32.55 114.02-33.39 113.17-34.24 112.06-34.72 110.94-35.21 109.66-35.21L109.66-35.21 101.09-35.21 101.09-3.3 109.66-3.3Q110.94-3.3 112.06-3.79 113.17-4.27 114.02-5.1 114.87-5.94 115.35-7.05 115.83-8.16 115.83-9.45L115.83-9.45ZM128.01 0L124.54 0 124.54-38.51 128.01-38.51 128.01 0ZM150.81 0L148.26-8.97 136.07-8.97 133.55 0 129.95 0 141.23-38.51 143.05-38.51 154.39 0 150.81 0ZM142.06-30.02L137.01-12.27 147.35-12.27 142.27-30.02 142.17-31.45 142.06-30.02ZM178 0L176.17 0 160.11-28.04 159.79-29.7 159.79 0 156.33 0 156.33-38.51 158.13-38.51 174.19-10.45 174.53-8.81 174.53-38.51 178-38.51 178 0Z"
                            transform="translate(-4.400000095367432, 38.5099983215332)"></path>
                    </g>
                </g>
            </g>
            <g fill="#FDF4E8" transform="translate(0,45.5099983215332)"
                mask="url(#5b4e8dca-d361-4c8c-b990-31b8eac17f9a)">
                <g>
                    <rect data-gra="graph-name-bg" stroke-width="2px" class="i-icon-bg" x="0" y="0"
                        width="173.60000610351562" height="14.160000801086426" stroke="#FDF4E8"></rect>

                </g>
                <g transform="translate(69.73000240325928,3)">
                    <g data-gra="path-slogan" fill-rule="" class="tp-slogan" fill="#31469a" transform="translate(0,0)">

                        <g transform="scale(1, 1)">
                            <g transform="scale(1)">
                                <path
                                    d="M1.08 0L1.08-7.87L3.42-7.87Q4.02-7.87 4.52-7.76Q5.02-7.66 5.37-7.43Q5.72-7.20 5.92-6.83Q6.12-6.47 6.12-5.95L6.12-5.95Q6.12-5.36 5.78-4.89Q5.45-4.42 4.75-4.24L4.75-4.24L4.75-4.19Q5.62-4.06 6.10-3.59Q6.58-3.12 6.58-2.30L6.58-2.30Q6.58-1.73 6.36-1.30Q6.14-0.86 5.75-0.58Q5.35-0.29 4.80-0.14Q4.25 0 3.59 0L3.59 0L1.08 0ZM2.08-4.51L3.24-4.51Q4.26-4.51 4.70-4.86Q5.14-5.21 5.14-5.87L5.14-5.87Q5.14-6.52 4.67-6.80Q4.21-7.08 3.29-7.08L3.29-7.08L2.08-7.08L2.08-4.51ZM2.08-0.79L3.44-0.79Q4.46-0.79 5.03-1.17Q5.59-1.55 5.59-2.35L5.59-2.35Q5.59-3.08 5.04-3.43Q4.49-3.77 3.44-3.77L3.44-3.77L2.08-3.77L2.08-0.79ZM9.14 0L9.14-7.87L10.13-7.87L10.13-0.85L13.58-0.85L13.58 0L9.14 0ZM15.97 0L15.97-7.87L16.96-7.87L16.96 0L15.97 0ZM19.55-1.02L20.15-1.72Q20.57-1.27 21.14-1.00Q21.71-0.73 22.32-0.73L22.32-0.73Q23.10-0.73 23.53-1.09Q23.96-1.44 23.96-2.02L23.96-2.02Q23.96-2.32 23.86-2.53Q23.76-2.74 23.59-2.89Q23.41-3.04 23.17-3.16Q22.93-3.28 22.66-3.41L22.66-3.41L21.53-3.90Q21.25-4.02 20.96-4.19Q20.68-4.36 20.45-4.60Q20.22-4.84 20.08-5.17Q19.93-5.50 19.93-5.93L19.93-5.93Q19.93-6.37 20.12-6.76Q20.30-7.14 20.63-7.42Q20.96-7.70 21.41-7.86Q21.86-8.02 22.40-8.02L22.40-8.02Q23.11-8.02 23.71-7.75Q24.31-7.48 24.73-7.04L24.73-7.04L24.19-6.40Q23.83-6.74 23.39-6.94Q22.96-7.14 22.40-7.14L22.40-7.14Q21.74-7.14 21.34-6.83Q20.94-6.53 20.94-5.99L20.94-5.99Q20.94-5.70 21.05-5.50Q21.17-5.30 21.36-5.15Q21.55-5.00 21.78-4.89Q22.01-4.78 22.25-4.68L22.25-4.68L23.36-4.20Q23.70-4.06 24-3.87Q24.30-3.68 24.52-3.44Q24.73-3.19 24.86-2.86Q24.98-2.53 24.98-2.10L24.98-2.10Q24.98-1.63 24.80-1.22Q24.61-0.82 24.26-0.51Q23.92-0.20 23.42-0.03Q22.93 0.14 22.31 0.14L22.31 0.14Q21.48 0.14 20.77-0.17Q20.06-0.48 19.55-1.02L19.55-1.02ZM26.79-1.02L27.39-1.72Q27.81-1.27 28.38-1.00Q28.95-0.73 29.56-0.73L29.56-0.73Q30.34-0.73 30.77-1.09Q31.20-1.44 31.20-2.02L31.20-2.02Q31.20-2.32 31.10-2.53Q31.00-2.74 30.83-2.89Q30.65-3.04 30.41-3.16Q30.17-3.28 29.90-3.41L29.90-3.41L28.77-3.90Q28.49-4.02 28.20-4.19Q27.92-4.36 27.69-4.60Q27.46-4.84 27.32-5.17Q27.17-5.50 27.17-5.93L27.17-5.93Q27.17-6.37 27.36-6.76Q27.54-7.14 27.87-7.42Q28.20-7.70 28.65-7.86Q29.10-8.02 29.64-8.02L29.64-8.02Q30.35-8.02 30.95-7.75Q31.55-7.48 31.97-7.04L31.97-7.04L31.43-6.40Q31.07-6.74 30.63-6.94Q30.20-7.14 29.64-7.14L29.64-7.14Q28.98-7.14 28.58-6.83Q28.18-6.53 28.18-5.99L28.18-5.99Q28.18-5.70 28.29-5.50Q28.41-5.30 28.60-5.15Q28.79-5.00 29.02-4.89Q29.25-4.78 29.49-4.68L29.49-4.68L30.60-4.20Q30.94-4.06 31.24-3.87Q31.54-3.68 31.76-3.44Q31.97-3.19 32.10-2.86Q32.22-2.53 32.22-2.10L32.22-2.10Q32.22-1.63 32.04-1.22Q31.85-0.82 31.50-0.51Q31.16-0.20 30.66-0.03Q30.17 0.14 29.55 0.14L29.55 0.14Q28.72 0.14 28.01-0.17Q27.30-0.48 26.79-1.02L26.79-1.02Z"
                                    transform="translate(-1.08, 8.016)"></path>
                            </g>
                        </g>
                    </g>
                </g>
            </g>
        </g>
    </g>
    <defs v-gra="od"></defs>
</svg>